<?xml version="1.0" standalone="no"?>
<!DOCTYPE svg PUBLIC "-//W3C//DTD SVG 20010904//EN"
 "http://www.w3.org/TR/2001/REC-SVG-20010904/DTD/svg10.dtd">
<svg version="1.0" xmlns="http://www.w3.org/2000/svg"
 width="700.000000pt" height="700.000000pt" viewBox="0 0 700.000000 700.000000"
 preserveAspectRatio="xMidYMid meet">
<metadata>
Created by potrace 1.11, written by Peter Selinger 2001-2013
</metadata>
<g transform="translate(0.000000,700.000000) scale(0.100000,-0.100000)"
fill="#000000" stroke="none">
<path d="M3476 6804 c-4 -27 -9 -67 -11 -89 -3 -22 -10 -74 -15 -115 -6 -41
-13 -88 -15 -105 -2 -16 -8 -66 -14 -110 -6 -44 -13 -100 -16 -125 -11 -95
-16 -103 -65 -105 -77 -4 -182 -16 -265 -31 -44 -8 -98 -17 -120 -20 l-40 -6
-67 164 c-165 401 -191 463 -197 471 -4 4 -30 -2 -57 -13 -27 -12 -58 -25 -69
-30 -11 -4 -36 -15 -57 -24 -20 -9 -39 -16 -42 -16 -3 0 -35 -13 -71 -30 -36
-16 -68 -30 -71 -30 -4 0 -89 -35 -229 -95 -16 -7 -55 -23 -85 -35 -146 -59
-155 -64 -153 -81 2 -16 237 -584 253 -611 8 -14 -6 -28 -88 -85 -53 -37 -139
-103 -190 -146 l-94 -78 -37 25 c-21 15 -46 34 -57 44 -10 9 -46 37 -79 62
-33 25 -109 83 -170 130 -60 47 -133 102 -162 123 l-51 37 -41 -52 c-22 -29
-44 -57 -49 -63 -37 -47 -240 -312 -252 -329 -12 -17 -99 -131 -202 -263 -8
-10 38 -50 248 -210 104 -79 280 -216 287 -222 4 -4 -12 -50 -36 -102 -37 -80
-66 -151 -128 -320 -11 -28 -5 -27 -164 -5 -16 3 -50 7 -75 10 -74 9 -283 37
-310 42 -14 2 -55 7 -92 10 l-68 6 -1 -33 c0 -19 -2 -43 -4 -54 -2 -11 -11
-78 -20 -150 -9 -71 -18 -143 -20 -160 -10 -63 -16 -112 -20 -155 -3 -25 -7
-56 -10 -70 -3 -14 -7 -45 -10 -70 -10 -84 -15 -125 -21 -167 -4 -32 -2 -43 8
-44 7 0 22 -2 33 -3 11 -2 45 -6 76 -10 31 -4 65 -8 75 -10 11 -2 48 -7 84
-11 36 -4 73 -9 84 -11 10 -2 43 -6 74 -10 30 -3 63 -8 71 -9 9 -2 45 -6 81
-10 90 -11 89 -10 97 -18 3 -4 8 -26 9 -49 3 -54 14 -164 20 -208 3 -19 7 -42
8 -50 1 -8 8 -48 16 -88 7 -39 11 -74 9 -75 -2 -2 -67 -30 -144 -61 -77 -32
-153 -64 -170 -71 -16 -7 -93 -39 -170 -70 -77 -31 -143 -60 -147 -64 -4 -4 5
-38 21 -76 60 -146 223 -541 236 -570 7 -16 28 -66 46 -110 17 -44 33 -82 35
-83 1 -2 17 3 36 12 18 8 58 25 88 36 30 12 69 28 85 35 89 41 422 175 434
175 4 0 33 -37 64 -83 30 -45 94 -128 141 -184 47 -56 86 -104 86 -106 0 -4
-195 -260 -233 -307 -24 -29 -174 -226 -180 -237 -5 -7 37 -46 105 -98 62 -47
120 -92 128 -98 9 -7 74 -58 145 -112 72 -55 175 -134 230 -176 54 -43 102
-76 106 -73 3 2 100 125 214 274 114 148 209 270 212 270 2 0 42 -18 88 -40
99 -47 217 -95 293 -119 29 -10 54 -19 54 -22 1 -6 -13 -150 -18 -174 -2 -11
-6 -42 -9 -69 -4 -27 -8 -56 -10 -65 -2 -14 -6 -44 -21 -166 -2 -16 -6 -43 -8
-60 -13 -91 -17 -153 -10 -158 5 -2 36 -8 69 -12 33 -3 75 -8 93 -11 79 -10
102 -13 182 -24 47 -6 99 -12 115 -15 17 -2 53 -7 80 -10 28 -4 61 -8 75 -10
14 -2 48 -7 75 -10 28 -4 77 -11 110 -16 95 -14 92 -16 100 49 4 31 9 66 10
77 24 176 33 248 40 300 2 17 9 64 15 105 5 41 12 90 14 108 4 42 7 44 58 48
90 6 184 15 213 20 17 3 37 6 45 8 8 1 48 8 88 16 39 7 74 11 76 9 1 -2 49
-116 106 -254 56 -137 113 -274 126 -303 13 -29 24 -57 24 -62 0 -27 13 -23
185 51 61 26 517 214 573 236 37 14 73 31 79 37 10 9 2 37 -36 126 -103 243
-211 507 -211 517 0 6 19 23 43 38 66 43 196 143 265 203 l63 54 38 -26 c21
-15 46 -34 57 -44 10 -9 75 -60 144 -112 69 -52 168 -127 219 -167 90 -70 96
-73 112 -56 14 15 86 108 219 283 38 51 301 393 313 408 8 10 7 16 -3 22 -8 5
-72 53 -142 107 -69 54 -187 145 -262 202 -75 57 -136 105 -136 108 0 2 19 43
41 90 41 86 119 280 119 294 0 4 4 19 9 32 9 23 12 24 68 16 32 -4 82 -10 112
-14 30 -4 61 -8 70 -10 9 -1 43 -6 76 -9 33 -4 67 -9 75 -11 8 -2 42 -7 75
-11 33 -3 71 -8 85 -10 14 -2 52 -6 86 -10 l61 -6 6 68 c4 38 9 78 11 89 2 12
7 48 11 80 4 33 8 71 10 85 2 14 7 48 10 75 3 28 8 62 11 77 3 15 7 42 9 60 1
18 8 71 14 118 7 47 13 99 15 115 3 17 7 54 11 83 6 46 5 52 -12 53 -10 0 -27
2 -38 4 -11 3 -45 7 -75 10 -30 4 -66 8 -80 10 -65 9 -179 25 -215 29 -160 19
-256 33 -262 40 -3 3 -6 22 -8 43 -12 145 -18 192 -31 270 -8 48 -17 104 -20
123 l-5 35 163 67 c405 166 463 191 471 198 5 4 -1 27 -12 51 -18 39 -71 168
-136 329 -12 30 -45 109 -72 175 -28 66 -65 156 -83 200 -18 44 -33 81 -35 83
-1 1 -144 -56 -318 -128 -173 -71 -319 -130 -325 -130 -5 0 -22 19 -37 43 -46
70 -160 219 -209 272 -25 28 -45 53 -46 56 0 3 94 129 209 279 116 151 208
277 205 281 -2 4 -57 47 -122 96 -64 48 -119 91 -122 94 -3 3 -102 79 -220
169 -118 91 -221 170 -228 177 -18 17 -21 15 -88 -74 -33 -43 -61 -80 -64 -83
-3 -3 -70 -89 -149 -192 -79 -104 -146 -188 -148 -188 -3 0 -46 20 -96 44 -75
35 -280 116 -335 132 -7 2 -11 7 -9 11 3 5 8 37 12 73 7 72 10 96 19 155 3 22
8 60 11 85 3 25 7 54 9 65 2 12 7 48 11 80 4 33 9 68 11 79 2 10 6 49 10 85 5
60 4 67 -13 68 -10 1 -54 6 -98 12 -95 13 -132 18 -245 32 -47 6 -96 12 -110
14 -14 2 -47 7 -75 11 -27 3 -57 7 -65 9 -8 2 -46 6 -85 10 -38 4 -79 9 -90
11 -11 2 -41 7 -66 10 l-47 6 -6 -48z m244 -1923 c219 -39 373 -100 555 -219
120 -79 287 -242 367 -357 239 -345 313 -756 208 -1165 -55 -216 -174 -427
-335 -598 -71 -74 -233 -212 -250 -212 -2 0 -23 -13 -47 -29 -50 -33 -169 -90
-248 -119 -276 -99 -639 -102 -916 -7 -211 73 -378 178 -540 339 -105 105
-207 243 -261 351 -33 66 -93 224 -104 274 -36 166 -45 243 -43 381 1 80 5
156 8 170 3 13 8 40 11 60 7 43 43 181 59 225 47 126 115 252 195 360 47 64
203 223 259 265 19 14 46 34 60 45 131 101 378 203 562 231 19 3 51 9 70 13
53 11 316 6 390 -8z"/>
</g>
</svg>
